<svg xmlns="http://www.w3.org/2000/svg" viewBox="0 0 1858.18 322.94"><defs><style>.cls-1{fill:#151349}.cls-2{fill:#e64d3c}.cls-3{fill:#e54d3b}</style></defs><g id="Layer_2" data-name="Layer 2"><g id="Layer_1-2" data-name="Layer 1"><path class="cls-1" d="M505.64 76.41v12.28h-66.31V76.41zm-54.17 43.93h27.42v12.28h-27.42v43.79h-12.14v-75.58h12.14zM519.14 143V76.41h12.28V143a21.15 21.15 0 0042.29 0V76.41H586V143a33.43 33.43 0 01-66.85 0zM669.48 88.69H603V76.41h66.44zm-26.74 87.72h-12.27V101h12.27zM682 143V76.41h12.28V143a21.15 21.15 0 0042.3 0V76.41h12.27V143a33.43 33.43 0 01-66.85 0zM834.56 104.38v.27a28.19 28.19 0 01-28 28H785v43.79h-12.24v-56.1h33.83a15.68 15.68 0 0015.69-15.69v-.27a15.6 15.6 0 00-15.69-15.69h-33.83V76.41h33.83a28.1 28.1 0 0127.97 27.97zm-18.69 40.24l18 31.79h-14.18L802 145zM892.54 105.33l-33 71H846l39.84-85.41 6.68-14.6 6.82 14.6zm32.88 71l-26.06-56.35 6.69-14.46 32.88 70.81zM1017.92 105.33l-33 71H971.4l39.83-85.41 6.69-14.6 6.82 14.6zm32.88 71l-26.06-56.35 6.68-14.46 32.88 70.81zM1077.4 143V76.41h12.28V143a21.15 21.15 0 0042.29 0V76.41h12.28V143a33.43 33.43 0 01-66.85 0zM1227.74 88.69h-66.44V76.41h66.44zM1201 176.41h-12.28V101H1201zM1249.71 161.82a50.23 50.23 0 010-70.81 50 50 0 1170.53 70.81 49.91 49.91 0 01-70.53 0zm-2.32-35.34A37.72 37.72 0 101285 88.69a37.64 37.64 0 00-37.61 37.79zM1363.76 120.2l.82 1.23v55h-12.28v-76.28l4.5 7.78 6.14 10.36zm73-43.79v100h-12.28v-79l-12.28 21.15-4.36 7.77-6.14 10.78-7.1 12.14-6.13-10.37-1-1.77-6-10.37-4.64-8.18-12.28-21.15-12-21h13.92l10.37 17.87 17.6 30.56 6.27-10.78 6.14-10.5 5.32-9.55 10.24-17.46v-.14h14.32zM1502.92 105.33l-33 71h-13.5l39.83-85.41 6.69-14.6 6.82 14.6zm32.88 71l-26.06-56.35 6.68-14.46 32.88 70.81zM1623.11 88.69h-66.44V76.41h66.44zm-26.74 87.72h-12.28V101h12.28zM1648.89 176.41h-12.27v-100h12.27zM1683.27 161.82a50.25 50.25 0 010-70.81 50 50 0 1170.54 70.81 49.93 49.93 0 01-70.54 0zm-2.27-35.34a37.73 37.73 0 1037.66-37.79 37.64 37.64 0 00-37.66 37.79zM1858.18 76.41v100H1844l-15.69-27-6-10.64-7.09-12.14-29.06-50.21h14.19l28.92 50.21 16.65 28.92V76.41zm-72 24.42l12.24 21.17v54.43h-12.28z"/><path class="cls-2" d="M443 239.85l-5 15h-6.38l16.24-47.8h7.45l16.31 47.8h-6.6l-5.1-15zm15.68-4.85L454 221.27c-1.06-3.13-1.77-6-2.48-8.73h-.14c-.71 2.84-1.49 5.75-2.42 8.65L444.28 235zM478.68 207.72a88.1 88.1 0 0113.12-1c8.87 0 15.18 2.05 19.36 6s6.74 9.44 6.74 17.17-2.41 14.11-6.9 18.54-11.84 6.88-21.13 6.88a98.3 98.3 0 01-11.21-.57zm6.17 42.28a39.46 39.46 0 006.24.35c13.19 0 20.36-7.37 20.36-20.28.07-11.28-6.31-18.44-19.36-18.44a34.65 34.65 0 00-7.24.64zM536.41 254.88l-15.6-47.8h6.66l7.45 23.55c2.06 6.45 3.83 12.27 5.11 17.87h.14c1.35-5.53 3.33-11.56 5.46-17.8l8.09-23.62h6.59l-17.09 47.8zM569.18 239.85l-5 15h-6.38l16.24-47.8h7.45l16.31 47.8h-6.6l-5.1-15zm15.67-4.85l-4.68-13.75c-1.06-3.13-1.77-6-2.48-8.73h-.14c-.71 2.84-1.49 5.75-2.42 8.65L570.45 235zM604.85 254.88v-47.8h6.74l15.32 24.19a135.51 135.51 0 018.58 15.53l.14-.07c-.57-6.39-.71-12.2-.71-19.65v-20h5.82v47.8h-6.24l-15.18-24.25a152 152 0 01-8.94-16l-.21.07c.35 6 .5 11.77.5 19.72v20.42zM684.92 253.32c-2.27 1.14-6.81 2.27-12.62 2.27-13.48 0-23.62-8.51-23.62-24.18 0-15 10.14-25.11 25-25.11 6 0 9.72 1.28 11.35 2.13l-1.49 5a22.53 22.53 0 00-9.64-2c-11.21 0-18.66 7.16-18.66 19.71 0 11.71 6.74 19.22 18.37 19.22a24.78 24.78 0 0010.07-2zM717.4 232.47h-18.58v17.23h20.71v5.18h-26.88v-47.8h25.82v5.18h-19.65v15.1h18.58zM727.54 207.72a88.1 88.1 0 0113.12-1c8.87 0 15.18 2.05 19.37 6s6.73 9.44 6.73 17.17-2.41 14.18-6.88 18.58-11.84 6.88-21.13 6.88a98.3 98.3 0 01-11.21-.57zm6.17 42.28a39.46 39.46 0 006.24.35c13.2 0 20.36-7.37 20.36-20.28.07-11.28-6.31-18.44-19.36-18.44a34.73 34.73 0 00-7.24.64zM830.1 233.89c-.36-6.67-.78-14.68-.71-20.64h-.22c-1.63 5.6-3.61 11.56-6 18.16l-8.43 23.19H810l-7.73-22.77c-2.27-6.74-4.18-12.91-5.53-18.58h-.14c-.14 6-.5 14-.92 21.14l-1.28 20.49h-5.89l3.34-47.8h7.87l8.16 23.12c2 5.89 3.61 11.14 4.82 16.1h.21c1.21-4.82 2.91-10.07 5-16.1l8.51-23.12h7.87l3 47.8h-6zM853.85 239.85l-5 15h-6.38l16.24-47.8h7.44l16.32 47.8h-6.6l-5.11-15zm15.68-4.85l-4.68-13.75c-1.07-3.13-1.78-6-2.49-8.73h-.14c-.71 2.84-1.49 5.75-2.41 8.65L855.13 235zM889.53 254.88v-47.8h6.73l15.32 24.19a134.17 134.17 0 018.59 15.53l.14-.07c-.57-6.39-.71-12.2-.71-19.65v-20h5.81v47.8h-6.24L904 230.63a150.2 150.2 0 01-8.94-16l-.21.07c.35 6 .49 11.77.49 19.72v20.42zM942.36 207.08v28.3c0 10.71 4.76 15.25 11.14 15.25 7.09 0 11.63-4.68 11.63-15.25v-28.3h6.24V235c0 14.68-7.73 20.71-18.08 20.71-9.79 0-17.17-5.6-17.17-20.42v-28.21zM982.08 207.08h25.74v5.18h-19.57v15.88h18.08v5.11h-18.08v21.63h-6.17zM1018.82 239.85l-5 15h-6.38l16.24-47.8h7.45l16.31 47.8h-6.6l-5.1-15zm15.67-4.83l-4.68-13.75c-1.06-3.13-1.77-6-2.48-8.73h-.14c-.71 2.84-1.49 5.75-2.42 8.65l-4.68 13.81zM1086.83 253.32c-2.27 1.14-6.81 2.27-12.62 2.27-13.48 0-23.62-8.51-23.62-24.18 0-15 10.14-25.11 25-25.11 6 0 9.72 1.28 11.35 2.13l-1.49 5a22.53 22.53 0 00-9.64-2c-11.21 0-18.65 7.16-18.65 19.71 0 11.71 6.73 19.22 18.36 19.22a24.87 24.87 0 0010.08-2zM1105.63 212.33h-14.54v-5.25h35.39v5.25h-14.61v42.55h-6.24zM1138 207.08v28.3c0 10.71 4.75 15.25 11.13 15.25 7.09 0 11.63-4.68 11.63-15.25v-28.3h6.24V235c0 14.68-7.73 20.71-18.08 20.71-9.79 0-17.17-5.6-17.17-20.42v-28.21zM1177.68 207.72a64.13 64.13 0 0111.84-1c6.6 0 10.86 1.2 13.83 3.9a11.86 11.86 0 013.76 9.07c0 6.32-4 10.5-9 12.2v.22c3.68 1.27 5.88 4.68 7 9.64 1.56 6.67 2.69 11.28 3.69 13.12h-6.39c-.78-1.35-1.84-5.46-3.19-11.42-1.42-6.59-4-9.07-9.57-9.29h-5.82v20.71h-6.17zm6.17 21.77h6.31c6.6 0 10.78-3.62 10.78-9.08 0-6.17-4.47-8.86-11-8.93a25.69 25.69 0 00-6.1.56zM1222 207.08v47.8h-6.17v-47.8zM1232.79 254.88v-47.8h6.73l15.32 24.19a134 134 0 018.58 15.53l.15-.07c-.57-6.39-.71-12.2-.71-19.65v-20h5.81v47.8h-6.24l-15.18-24.25a151.84 151.84 0 01-8.93-16l-.22.07c.36 6 .5 11.77.5 19.72v20.42zM1315.84 252.75a44.37 44.37 0 01-14.69 2.63c-7.23 0-13.19-1.85-17.87-6.31-4.11-4-6.66-10.36-6.66-17.8.07-14.26 9.85-24.69 25.88-24.69a29.65 29.65 0 0111.92 2.2l-1.49 5a24.74 24.74 0 00-10.57-2.06c-11.63 0-19.22 7.24-19.22 19.22 0 12.13 7.3 19.29 18.44 19.29 4 0 6.81-.57 8.23-1.27v-14.22h-9.72v-5h15.75zM1348 239.85l-5 15h-6.38l16.24-47.8h7.44l16.32 47.8h-6.6l-5.11-15zm15.68-4.83l-4.68-13.75c-1.07-3.13-1.78-6-2.49-8.73h-.14c-.71 2.84-1.49 5.75-2.41 8.65l-4.65 13.81zM1383.71 254.88v-47.8h6.73l15.32 24.19a134.17 134.17 0 018.59 15.53l.14-.07c-.57-6.39-.71-12.2-.71-19.65v-20h5.81v47.8h-6.24l-15.17-24.25a150.2 150.2 0 01-8.94-16l-.21.07c.35 6 .49 11.77.49 19.72v20.42zM1430.37 207.72a88.1 88.1 0 0113.12-1c8.87 0 15.18 2.05 19.37 6s6.73 9.44 6.73 17.17-2.41 14.18-6.88 18.58-11.84 6.88-21.13 6.88a98.3 98.3 0 01-11.21-.57zm6.17 42.27a39.46 39.46 0 006.24.35c13.2 0 20.36-7.37 20.36-20.28.07-11.28-6.31-18.44-19.36-18.44a34.73 34.73 0 00-7.24.64zM1492.64 207.72a64.13 64.13 0 0111.84-1c6.6 0 10.86 1.2 13.83 3.9a11.86 11.86 0 013.76 9.07c0 6.32-4 10.5-9 12.2v.22c3.68 1.27 5.88 4.68 7 9.64 1.56 6.67 2.69 11.28 3.69 13.12h-6.39c-.78-1.35-1.84-5.46-3.19-11.42-1.42-6.59-4-9.07-9.57-9.29h-5.82v20.71h-6.17zm6.17 21.77h6.31c6.6 0 10.78-3.62 10.78-9.08 0-6.17-4.47-8.86-11-8.93a25.69 25.69 0 00-6.1.56zM1571.86 230.49c0 16.45-10 25.17-22.2 25.17-12.62 0-21.49-9.79-21.49-24.25 0-15.18 9.43-25.11 22.2-25.11 13.05 0 21.49 10 21.49 24.19zm-37.09.78c0 10.21 5.53 19.36 15.25 19.36s15.32-9 15.32-19.86c0-9.5-5-19.43-15.25-19.43s-15.32 9.43-15.32 19.93zM1579.87 207.72a59.65 59.65 0 0111.28-1c6.17 0 10.14 1.06 13.12 3.47a10 10 0 014 8.44c0 4.61-3 8.65-8.08 10.5v.14c4.54 1.13 9.85 4.89 9.85 12a12.88 12.88 0 01-4 9.57c-3.33 3-8.72 4.47-16.52 4.47a72.76 72.76 0 01-9.58-.57zm6.17 19.57h5.61c6.52 0 10.35-3.4 10.35-8 0-5.6-4.25-7.8-10.5-7.8a26.9 26.9 0 00-5.46.42zm0 22.91a33.23 33.23 0 005.18.29c6.38 0 12.27-2.35 12.27-9.3 0-6.52-5.6-9.22-12.34-9.22H1586zM1659.16 230.49c0 16.45-10 25.17-22.19 25.17-12.63 0-21.5-9.79-21.5-24.25 0-15.18 9.44-25.11 22.2-25.11 13.05 0 21.49 10 21.49 24.19zm-37.09.78c0 10.21 5.53 19.36 15.25 19.36s15.32-9 15.32-19.86c0-9.5-5-19.43-15.25-19.43s-15.32 9.43-15.32 19.93zM1674.48 212.33h-14.54v-5.25h35.39v5.25h-14.61v42.55h-6.24zM1706.82 207.08v47.8h-6.17v-47.8zM1751 253.32c-2.27 1.14-6.81 2.27-12.63 2.27-13.47 0-23.61-8.51-23.61-24.18 0-15 10.14-25.11 25-25.11 6 0 9.72 1.28 11.35 2.13l-1.49 5a22.54 22.54 0 00-9.65-2c-11.2 0-18.65 7.16-18.65 19.71 0 11.71 6.74 19.22 18.37 19.22a24.78 24.78 0 0010.07-2zM1757.89 247.36a21.74 21.74 0 0011.06 3.13c6.31 0 10-3.34 10-8.16 0-4.47-2.55-7-9-9.51-7.8-2.76-12.62-6.8-12.62-13.54 0-7.45 6.17-13 15.46-13a21.82 21.82 0 0110.57 2.34l-1.71 5a18.88 18.88 0 00-9.07-2.27c-6.53 0-9 3.9-9 7.16 0 4.47 2.91 6.67 9.5 9.22 8.09 3.12 12.2 7 12.2 14 0 7.38-5.46 13.76-16.74 13.76-4.61 0-9.64-1.35-12.19-3.05z"/><path class="cls-1" d="M170.49 273.22c-60.8 7.34-122.1-20-132.39-68.83 30.61 43.05 103.52 70.44 169.07 36.44 16-8.61 30.26-18.53 41.15-32.15 2.55-3.46 5.25-6.48 6.5-9.94 7.71-25.34 3.11-47.48-6.3-68.76 20.66 3.55 32.17 23.54 32.52 41.32-.21 18-6.63 34.88-20.23 51.52-9.31 11-20.18 19.66-32.85 27.39-16.85 10.37-36.96 18.13-57.47 23.01z"/><path class="cls-3" d="M54.25 210.56c-39.34-63.5 13.18-155.22 100-190.87 9.53-3.69 18.92-7.69 28.8-10.51A346.37 346.37 0 01220.2 2c25.92-3 50.42-2.89 74.9 2.19a182.69 182.69 0 0119.31 5.07c5.26 2 10.92 3.29 14.26 7-82.13-22.87-199.31-1-248.39 79.47A179.27 179.27 0 0067.42 121a93.82 93.82 0 00-7 30.55c-.21 9.54.3 19.29 2.49 28.41 3.85 13.46 12.2 25.2 21.51 36.07A144 144 0 00106 233.71c11.85 7.42 26.47 10.29 39.11 16.41-19.08 2.31-36.14-3.61-51-10.52-12.49-5.94-26.24-15.6-39.86-29.04z"/><path class="cls-1" d="M220.84 211.37c-27.15 34.61-84.28 35-117.21 16.26a103.53 103.53 0 01-21-16.34c-4.24-4.36-7.35-9.14-10.47-13.92a69.65 69.65 0 01-8-20.85c-.87-5.64-2.29-11.06-1.87-16.7.48-7.15 1-14.3 2.75-21.45a136.7 136.7 0 0111.36-29.23c6-11.25 12.73-22.28 22.71-31.56a193.12 193.12 0 0159.46-38.15c7.14-3.22 14.5-7.53 22.41-7.06C115.15 64 60.56 135.1 95.88 188.79a100.79 100.79 0 008.41 10.21c5 4.58 9.76 8.71 16.64 11.56 24.29 9.63 53.61 8.88 81.46 1.33 12.66-3.65 19.06-4.89 18.45-.52z"/><path class="cls-3" d="M99.23 130.79c-4.67 10.73-4.23 22-9.67 33C80.67 117 123.84 63.15 181.25 43.21A295.22 295.22 0 01215 33.8c10.38-1.48 20-3.17 30-4 8.86-.4 16.7 1.58 25.33 2.27 6.05.67 10.58 2.42 16.07 3.31q33.09 8.26 56.87 27.54c17.25 14.81 30.89 32 37.57 52.83 2.86 10.86 5.72 21.71 6.33 33.42.91 17.56-2.37 34.25-9.59 52.43-.79 1.3-1.25 3.46-3.5 4.32C393.69 125.78 340.71 41 235.61 47.32 218.05 48.56 200 52 183.18 58.39a169.08 169.08 0 00-42.45 23.69c-6.47 5-12 10.57-17.48 15.76a145.81 145.81 0 00-24.02 32.95z"/><path class="cls-1" d="M165.3 90.67c-35.57 25-46 61.79-25.1 91.14 5.07 6.52 15.86 12.85 12.76 16.53-10.37 9.93-31.84-.78-38.74-12.08-4.11-7.39-7.32-14.12-9.19-22.37s-1-16 .86-24.71c1.32-5 2.63-10 5.24-14.94 5-10.39 10.59-19.47 19.27-28.76 10.83-12.1 23.71-20.51 38.78-28.25 9.82-4.73 18.93-7.73 29.38-10.73 14-3.85 28.23-5.31 42.08-6.12a74.75 74.75 0 0113.79.7c25.59 4.66 47 13.41 64 27.79 3.91 3.48 10.06 6.11 8.68 12.61-33.15-17.69-75.59-29.35-120-17a201.54 201.54 0 00-41.81 16.19z"/><path class="cls-3" d="M181 310.89c86-19.74 159.44-97.08 140.8-166.1-5.95-20.62-20.15-37.58-39.88-50.45-17.6-10.7-38.44-14.68-59.83-18.45 70.1-15.34 120.82 31.48 123.34 85.26a71.61 71.61 0 01-2.43 22.32c-3.19 10.18-6.15 19.27-10.8 29-3.56 5.84-6.57 11.47-10.13 17.31a166.74 166.74 0 01-22.35 27.44c-22.88 22.68-50.16 40.57-81.56 51.07-10.28 3.43-20.16 6.21-30.77 8.77a252.77 252.77 0 01-51.83 5.87 233.32 233.32 0 01-32.56-2.51c-6.38-1.54-12.6-2.65-17.63-5.7 16.43-.8 31.61 1.86 48 .29 13.86-.54 29.87-1.86 47.63-4.12z"/><path class="cls-1" d="M193.33 293.31C253.4 267.46 308 213.25 298 158.36c-3.76-20-13.14-37.78-33.55-47.4-27.46-12.9-61.64-6.31-93.54 2.89 4.91-15.81 30.36-25 48.31-26.91 8.13-.62 16.26-1.24 24.33-.34a99 99 0 0120.11 3.76c3.64 1.1 6.88 2.85 10.52 4 13 5.47 22.07 14 30.71 23.1 5.3 5.44 8.52 12.17 11.57 18.47 3.54 7.61 4.84 16.07 5.58 24.74 1.06 23-6.91 45.94-23.28 67.12-20.27 26.16-49 47.08-81.67 59.67-20.15 7.24-28.45 8.4-23.76 5.85z"/><path class="cls-3" d="M8.88 117.51C16 104.35 20.65 89.63 33.27 78.84 2.44 141.38-.14 215.52 60.49 254.56c24 15.71 54.09 23.63 87.68 22.24 6.28-.4 12.4-1.25 18.68-1.66 20.36-2.3 39.63-9.16 57.9-18.63a172.26 172.26 0 0034.55-24.15c16.12-15.12 25.51-32.64 35.64-50-7.45 63.12-88.45 113.97-161.94 108.7-21.85-1.61-41.07-4.72-59.69-13-9.57-4.81-18.4-9.4-26.44-15.28a174.51 174.51 0 01-19-17.64c-5.07-6.52-10.14-13.05-14.25-20.43a118.42 118.42 0 01-11-30.62C1.21 183.65-.59 173.89.19 163.2a158.47 158.47 0 018.69-45.69z"/></g></g></svg>